<?xml version="1.0" standalone="no"?><!DOCTYPE svg PUBLIC "-//W3C//DTD SVG 1.1//EN" "http://www.w3.org/Graphics/SVG/1.1/DTD/svg11.dtd"><svg t="1658114253263" class="icon" viewBox="0 0 1024 1024" version="1.1" xmlns="http://www.w3.org/2000/svg" p-id="3825" xmlns:xlink="http://www.w3.org/1999/xlink" width="200" height="200"><defs><style type="text/css">@font-face { font-family: feedback-iconfont; src: url("//at.alicdn.com/t/font_1031158_u69w8yhxdu.woff2?t=1630033759944") format("woff2"), url("//at.alicdn.com/t/font_1031158_u69w8yhxdu.woff?t=1630033759944") format("woff"), url("//at.alicdn.com/t/font_1031158_u69w8yhxdu.ttf?t=1630033759944") format("truetype"); }
</style></defs><path d="M832 128c53.12 0 96 42.88 96 96v416c0 53.12-42.88 96-96 96h-146.56L512 916.48l-151.04-158.72 46.08-44.16L512 824.32 658.56 672H832c17.92 0 32-14.08 32-32V224c0-17.92-14.08-32-32-32H192c-17.92 0-32 14.08-32 32v416c0 17.92 14.08 32 32 32h64v64H192c-53.12 0-96-42.88-96-96V224c0-53.12 42.88-96 96-96h640zM456.32 315.52L512 371.84l55.68-55.68 78.72 78.72-134.4 134.4-78.72-78.72v-0.64l-55.68-55.68 78.72-78.72z" p-id="3826"></path></svg>